<?xml version="1.0" encoding="UTF-8"?>
<!DOCTYPE svg PUBLIC "-//W3C//DTD SVG 1.1//EN" "http://www.w3.org/Graphics/SVG/1.1/DTD/svg11.dtd">
<!-- Creator: CorelDRAW 2020 (64-Bit) -->
<svg xmlns="http://www.w3.org/2000/svg" xml:space="preserve" width="60.9828mm" height="13.908mm" version="1.1" style="shape-rendering:geometricPrecision; text-rendering:geometricPrecision; image-rendering:optimizeQuality; fill-rule:evenodd; clip-rule:evenodd"
viewBox="0 0 6098.28 1390.8"
 xmlns:xlink="http://www.w3.org/1999/xlink"
 xmlns:xodm="http://www.corel.com/coreldraw/odm/2003">
 <defs>
  <style type="text/css">
   <![CDATA[
    .fil0 {fill:#545454}
    .fil1 {fill:#545454;fill-rule:nonzero}
   ]]>
  </style>
 </defs>
 <g id="Layer_x0020_1">
  <metadata id="CorelCorpID_0Corel-Layer"/>
  <g id="_2623270488928">
   <path class="fil0" d="M400.19 666l9.26 -9.26c40.73,-40.73 107.39,-40.73 148.12,0l391.9 391.9c40.73,40.73 40.73,107.39 0,148.12l-9.26 9.26c-40.73,40.73 -107.38,40.73 -148.12,0l-391.9 -391.91c-40.74,-40.73 -40.74,-107.37 0,-148.11z"/>
   <path class="fil0" d="M278.31 641.05l9.26 9.26c40.73,40.73 40.73,107.39 0,148.11l-106.97 106.97c-40.73,40.73 -107.38,40.72 -148.11,0.01l-9.27 -9.27c-40.73,-40.72 -40.73,-107.38 0,-148.12l106.97 -106.96c40.73,-40.74 107.38,-40.73 148.12,0z"/>
   <path class="fil0" d="M287.57 534.85l-9.26 9.26c-40.73,40.74 -107.39,40.73 -148.12,0.01l-106.96 -106.97c-40.73,-40.73 -40.73,-107.38 -0.01,-148.11l9.26 -9.27c40.73,-40.74 107.39,-40.73 148.12,0l106.97 106.97c40.73,40.73 40.72,107.38 0,148.11z"/>
   <path class="fil0" d="M401.2 536.68l-9.26 -9.27c-40.73,-40.73 -40.73,-107.38 0,-148.11l242.09 -242.09c40.73,-40.73 107.38,-40.72 148.11,0l9.27 9.26c40.73,40.72 40.73,107.39 0,148.12l-242.09 242.09c-40.73,40.73 -107.39,40.73 -148.12,0z"/>
   <polygon class="fil1" points="1075.25,949.38 1175.55,949.38 1175.55,633.97 1479.08,949.38 1615,949.38 1267.92,593.06 1601.81,282.94 1465.88,282.94 1175.55,552.15 1175.55,281.2 1075.25,281.2 "/>
   <path class="fil1" d="M1958.5 884.72c-147.81,0 -254.7,-113.49 -254.7,-267.89 0,-155.72 106.89,-267.9 254.7,-267.9 146.47,0 254.69,112.18 254.69,267.9 0,154.4 -108.22,267.89 -254.69,267.89zm256.01 -483c-56.75,-89.74 -153.09,-145.16 -267.89,-145.16 -199.27,0 -343.12,151.76 -343.12,360.27 0,207.19 143.85,358.95 343.12,358.95 114.8,0 211.14,-55.44 267.89,-143.85l0 117.45 100.3 0 0 -666.43 -100.3 0 0 118.77z"/>
   <path class="fil1" d="M2448.47 282.95l0 666.43 100.3 0 0 -373.47c0,-133.28 68.62,-226.98 172.87,-226.98 26.4,0 64.67,5.28 98.98,21.12l0 -92.38c-30.35,-11.87 -62.03,-18.48 -89.74,-18.48 -81.82,0 -145.16,43.56 -184.75,116.14l0 -92.38 -97.66 0z"/>
   <path class="fil1" d="M2950.34 784.2c0,115.04 68.63,191.57 178.16,191.57 32.99,0 75.21,-6.6 105.57,-15.83l0 -83.14c-25.08,7.92 -59.38,13.2 -80.51,13.2 -63.33,-1.32 -102.92,-44.87 -102.92,-109.76l0 -415.48 172.87 0 0 -83.13 -172.87 0 0 -155.71 -81.82 0 -14.52 155.71 -113.49 0 0 83.13 109.53 0 0 419.44z"/>
   <path class="fil1" d="M3465.39 949.38l0 -393.26c0,-105.57 63.34,-175.51 158.35,-175.51 92.39,0 151.77,69.94 151.77,175.51l0 393.26 143.84 0 0 -393.26c0,-101.61 67.3,-175.51 161,-175.51 91.06,1.31 155.72,73.9 155.72,175.51l0 393.26 142.52 0 0 -405.14c0,-170.23 -110.84,-290.33 -267.88,-290.33 -96.34,0 -180.8,48.84 -226.99,125.38 -39.58,-76.54 -126.69,-126.69 -230.94,-126.69 -80.5,0 -150.44,38.27 -192.67,102.93l0 -76.54 -138.57 0 0 670.39 143.85 0z"/>
   <path class="fil1" d="M4830.8 847.76c-128.01,0 -221.71,-98.97 -221.71,-233.58 0,-135.92 93.7,-233.57 221.71,-233.57 128.01,0 220.38,97.65 220.38,233.57 0,135.93 -92.37,233.58 -220.38,233.58zm221.7 -468.48c-56.75,-79.17 -145.16,-126.68 -249.41,-126.68 -196.64,0 -336.52,151.76 -336.52,361.58 0,209.84 139.88,361.6 336.52,361.6 104.25,0 192.66,-47.51 249.41,-126.69l0 100.29 143.85 0 0 -670.39 -143.85 0 0 100.29z"/>
   <polygon class="fil1" points="5442.68,949.38 5610.28,686.76 5777.89,949.38 5952.08,949.38 5704.49,581.9 6090.95,7.32 5920.71,7.32 5597.59,500.08 5450.6,278.98 5281.68,278.98 5503.39,600.98 5269.8,949.38 "/>
   <path class="fil1" d="M3328.87 1326.92l-27.8 0 0 -242.76 29.84 0 0 86.62c12.6,-15.7 28.65,-23.56 48.2,-23.56 10.79,0 21.08,2.15 30.74,6.5 9.66,4.35 17.58,10.51 23.85,18.37 6.21,7.91 11.13,17.4 14.63,28.53 3.56,11.08 5.32,23 5.32,35.66 0,30.06 -7.46,53.34 -22.33,69.73 -14.91,16.44 -32.77,24.64 -53.62,24.64 -20.74,0 -37.02,-8.65 -48.83,-25.88l0 22.15zm-0.34 -89.28c0,21.02 2.89,36.22 8.59,45.6 9.38,15.31 22.04,23 38.03,23 13.06,0 24.3,-5.65 33.74,-16.96 9.49,-11.3 14.24,-28.14 14.24,-50.51 0,-22.95 -4.52,-39.84 -13.62,-50.75 -9.1,-10.91 -20.12,-16.39 -33,-16.39 -13.05,0 -24.3,5.65 -33.73,16.96 -9.5,11.3 -14.25,27.63 -14.25,49.05zm160.09 156.92l-3.39 -27.58c6.56,1.76 12.21,2.66 17.07,2.66 6.67,0 11.98,-1.13 15.93,-3.33 4.02,-2.21 7.29,-5.32 9.84,-9.27 1.86,-3 4.91,-10.4 9.1,-22.27 0.56,-1.64 1.41,-4.06 2.65,-7.29l-66.79 -176.53 31.87 0 36.73 101.6c4.8,12.83 9.04,26.39 12.83,40.63 3.44,-13.39 7.51,-26.61 12.26,-39.61l37.52 -102.62 29.78 0 -66.51 179.02c-7.18,19.27 -12.77,32.49 -16.78,39.78 -5.31,9.78 -11.42,16.96 -18.25,21.53 -6.9,4.58 -15.09,6.84 -24.59,6.84 -5.76,0 -12.2,-1.19 -19.27,-3.56zm382.4 -162.92l0 -28.48 102.73 0 0 89.97c-15.76,12.54 -32.04,22.04 -48.82,28.36 -16.78,6.33 -34.02,9.5 -51.65,9.5 -23.85,0 -45.49,-5.09 -64.99,-15.32 -19.43,-10.17 -34.18,-24.97 -44.07,-44.24 -9.95,-19.33 -14.92,-40.92 -14.92,-64.71 0,-23.62 4.92,-45.65 14.8,-66.17 9.89,-20.45 24.08,-35.65 42.61,-45.54 18.54,-9.95 39.9,-14.92 64.08,-14.92 17.52,0 33.4,2.82 47.58,8.53 14.19,5.71 25.32,13.62 33.34,23.74 8.08,10.17 14.19,23.45 18.37,39.78l-28.99 7.91c-3.67,-12.32 -8.19,-22.04 -13.56,-29.16 -5.43,-7.06 -13.11,-12.71 -23.17,-16.95 -10,-4.24 -21.14,-6.39 -33.4,-6.39 -14.63,0 -27.29,2.26 -38.03,6.73 -10.68,4.46 -19.27,10.34 -25.88,17.68 -6.55,7.29 -11.64,15.32 -15.26,24.02 -6.16,15.09 -9.26,31.36 -9.26,48.94 0,21.7 3.73,39.83 11.13,54.47 7.46,14.58 18.31,25.43 32.49,32.49 14.24,7.07 29.33,10.63 45.32,10.63 13.9,0 27.46,-2.72 40.69,-8.08 13.22,-5.43 23.22,-11.14 30.06,-17.3l0 -45.49 -71.2 0zm146.07 95.28l0 -175.97 26.79 0 0 26.96c6.84,-12.49 13.17,-20.74 18.99,-24.7 5.82,-4.01 12.2,-5.99 19.15,-5.99 10.06,0 20.29,3.17 30.69,9.44l-10.63 27.52c-7.23,-4.07 -14.46,-6.11 -21.7,-6.11 -6.49,0 -12.31,1.98 -17.46,5.88 -5.14,3.9 -8.81,9.33 -11.02,16.28 -3.33,10.56 -4.97,22.15 -4.97,34.75l0 91.94 -29.84 0zm233.27 -56.96l30.86 4.07c-4.81,17.91 -13.79,31.87 -26.9,41.76 -13.11,9.89 -29.84,14.86 -50.24,14.86 -25.65,0 -46,-7.91 -61.03,-23.74 -15.03,-15.76 -22.54,-37.97 -22.54,-66.51 0,-29.49 7.57,-52.44 22.77,-68.71 15.2,-16.33 34.92,-24.47 59.16,-24.47 23.45,0 42.61,7.97 57.47,23.96 14.86,15.99 22.32,38.48 22.32,67.47 0,1.75 -0.05,4.41 -0.17,7.91l-131.04 0c1.13,19.27 6.55,34.08 16.39,44.31 9.77,10.22 22.04,15.37 36.67,15.37 10.91,0 20.23,-2.89 27.92,-8.65 7.74,-5.76 13.84,-14.97 18.36,-27.63zm-97.64 -47.81l97.98 0c-1.3,-14.8 -5.08,-25.88 -11.24,-33.28 -9.44,-11.47 -21.76,-17.24 -36.85,-17.24 -13.67,0 -25.14,4.58 -34.47,13.73 -9.27,9.16 -14.41,21.42 -15.42,36.79zm286.21 47.81l30.86 4.07c-4.81,17.91 -13.79,31.87 -26.9,41.76 -13.11,9.89 -29.84,14.86 -50.24,14.86 -25.65,0 -46,-7.91 -61.03,-23.74 -15.03,-15.76 -22.55,-37.97 -22.55,-66.51 0,-29.49 7.58,-52.44 22.78,-68.71 15.2,-16.33 34.92,-24.47 59.16,-24.47 23.45,0 42.61,7.97 57.47,23.96 14.86,15.99 22.32,38.48 22.32,67.47 0,1.75 -0.05,4.41 -0.17,7.91l-131.04 0c1.13,19.27 6.55,34.08 16.39,44.31 9.77,10.22 22.04,15.37 36.67,15.37 10.91,0 20.23,-2.89 27.92,-8.65 7.74,-5.76 13.84,-14.97 18.36,-27.63zm-97.65 -47.81l97.99 0c-1.3,-14.8 -5.08,-25.88 -11.24,-33.28 -9.44,-11.47 -21.76,-17.24 -36.85,-17.24 -13.67,0 -25.14,4.58 -34.47,13.73 -9.27,9.16 -14.41,21.42 -15.43,36.79zm166.2 104.77l0 -175.97 26.78 0 0 24.98c12.89,-19.16 31.53,-28.71 55.89,-28.71 10.62,0 20.34,1.92 29.21,5.71 8.88,3.78 15.54,8.81 19.95,14.97 4.41,6.16 7.52,13.51 9.27,21.99 1.07,5.53 1.64,15.2 1.64,28.98l0 108.05 -29.84 0 0 -106.92c0,-12.15 -1.13,-21.24 -3.45,-27.23 -2.31,-5.99 -6.44,-10.8 -12.31,-14.41 -5.88,-3.56 -12.83,-5.37 -20.74,-5.37 -12.66,0 -23.57,4.01 -32.78,12.09 -9.21,8.03 -13.79,23.34 -13.79,45.83l0 96.01 -29.83 0zm193.65 0l0 -242.76 32.21 0 0 100.02 125.45 0 0 -100.02 32.21 0 0 242.76 -32.21 0 0 -114.26 -125.45 0 0 114.26 -32.21 0zm228.58 -87.99c0,-32.49 9.04,-56.56 27.18,-72.21 15.09,-13 33.57,-19.5 55.32,-19.5 24.13,0 43.91,7.91 59.28,23.73 15.32,15.77 23,37.64 23,65.5 0,22.6 -3.39,40.35 -10.17,53.29 -6.78,12.94 -16.67,22.99 -29.67,30.17 -12.94,7.18 -27.12,10.74 -42.44,10.74 -24.63,0 -44.53,-7.86 -59.73,-23.62 -15.2,-15.77 -22.77,-38.49 -22.77,-68.1zm30.52 0.06c0,22.49 4.91,39.33 14.74,50.46 9.89,11.19 22.27,16.79 37.24,16.79 14.81,0 27.13,-5.6 37.02,-16.84 9.83,-11.25 14.75,-28.37 14.75,-51.37 0,-21.7 -4.98,-38.14 -14.87,-49.27 -9.89,-11.19 -22.2,-16.79 -36.9,-16.79 -14.97,0 -27.35,5.54 -37.24,16.67 -9.83,11.13 -14.74,27.92 -14.74,50.35zm169.24 87.93l0 -175.97 26.78 0 0 24.98c12.89,-19.16 31.54,-28.71 55.89,-28.71 10.62,0 20.34,1.92 29.22,5.71 8.87,3.78 15.54,8.81 19.94,14.97 4.41,6.16 7.52,13.51 9.27,21.99 1.07,5.53 1.64,15.2 1.64,28.98l0 108.05 -29.84 0 0 -106.92c0,-12.15 -1.13,-21.24 -3.44,-27.23 -2.32,-5.99 -6.45,-10.8 -12.32,-14.41 -5.88,-3.56 -12.83,-5.37 -20.74,-5.37 -12.66,0 -23.57,4.01 -32.78,12.09 -9.21,8.03 -13.78,23.34 -13.78,45.83l0 96.01 -29.84 0zm303.51 -64.42l29.16 4.07c-3.22,20.06 -11.36,35.71 -24.53,47.07 -13.17,11.36 -29.38,17.01 -48.54,17.01 -24.02,0 -43.34,-7.86 -57.92,-23.57 -14.64,-15.71 -21.93,-38.2 -21.93,-67.47 0,-18.98 3.17,-35.54 9.44,-49.78 6.27,-14.19 15.82,-24.87 28.71,-31.93 12.82,-7.12 26.78,-10.68 41.93,-10.68 19.04,0 34.69,4.8 46.79,14.47 12.15,9.66 19.94,23.39 23.33,41.14l-28.82 4.4c-2.76,-11.81 -7.62,-20.68 -14.69,-26.67 -7.01,-5.93 -15.48,-8.93 -25.43,-8.93 -15.03,0 -27.23,5.37 -36.67,16.11 -9.38,10.79 -14.07,27.74 -14.07,51.03 0,23.62 4.52,40.74 13.56,51.42 9.1,10.68 20.91,16.05 35.43,16.05 11.75,0 21.53,-3.56 29.33,-10.74 7.85,-7.12 12.83,-18.14 14.92,-33zm54.59 64.42l0 -242.76 29.83 0 0 87.36c13.85,-16.22 31.31,-24.3 52.44,-24.3 12.94,0 24.19,2.54 33.79,7.69 9.55,5.14 16.39,12.2 20.52,21.24 4.12,9.04 6.16,22.21 6.16,39.39l0 111.38 -29.84 0 0 -111.27c0,-14.86 -3.22,-25.71 -9.61,-32.49 -6.44,-6.78 -15.48,-10.17 -27.23,-10.17 -8.76,0 -17.01,2.26 -24.76,6.84 -7.74,4.57 -13.22,10.79 -16.55,18.64 -3.28,7.8 -4.92,18.6 -4.92,32.38l0 96.07 -29.83 0zm177.38 -87.99c0,-32.49 9.04,-56.56 27.18,-72.21 15.08,-13 33.56,-19.5 55.32,-19.5 24.13,0 43.91,7.91 59.28,23.73 15.31,15.77 23,37.64 23,65.5 0,22.6 -3.4,40.35 -10.18,53.29 -6.78,12.94 -16.67,22.99 -29.66,30.17 -12.94,7.18 -27.13,10.74 -42.44,10.74 -24.64,0 -44.53,-7.86 -59.73,-23.62 -15.2,-15.77 -22.77,-38.49 -22.77,-68.1zm30.51 0.06c0,22.49 4.92,39.33 14.75,50.46 9.89,11.19 22.26,16.79 37.24,16.79 14.8,0 27.12,-5.6 37.01,-16.84 9.84,-11.25 14.75,-28.37 14.75,-51.37 0,-21.7 -4.97,-38.14 -14.86,-49.27 -9.89,-11.19 -22.21,-16.79 -36.9,-16.79 -14.98,0 -27.35,5.54 -37.24,16.67 -9.83,11.13 -14.75,27.92 -14.75,50.35zm157.38 35.38l29.5 -4.75c1.63,11.81 6.27,20.85 13.84,27.18 7.57,6.27 18.2,9.44 31.76,9.44 13.73,0 23.9,-2.77 30.57,-8.37 6.61,-5.53 9.94,-12.09 9.94,-19.61 0,-6.72 -2.99,-12.03 -8.92,-15.87 -4.19,-2.66 -14.36,-5.99 -30.52,-10.12 -21.81,-5.48 -36.9,-10.23 -45.37,-14.24 -8.43,-4.07 -14.81,-9.61 -19.16,-16.73 -4.35,-7.06 -6.56,-14.91 -6.56,-23.5 0,-7.86 1.81,-15.09 5.37,-21.76 3.62,-6.67 8.48,-12.21 14.64,-16.61 4.63,-3.39 10.96,-6.28 18.93,-8.65 8.02,-2.37 16.56,-3.56 25.71,-3.56 13.79,0 25.88,1.98 36.28,5.99 10.45,3.96 18.14,9.38 23.11,16.16 4.92,6.84 8.36,15.94 10.23,27.35l-29.16 4.07c-1.3,-9.15 -5.14,-16.33 -11.47,-21.47 -6.33,-5.14 -15.26,-7.69 -26.84,-7.69 -13.62,0 -23.4,2.26 -29.22,6.78 -5.82,4.52 -8.76,9.84 -8.76,15.88 0,3.85 1.19,7.35 3.62,10.46 2.43,3.16 6.22,5.82 11.41,7.91 3,1.13 11.7,3.67 26.28,7.63 21.02,5.59 35.71,10.22 44.08,13.78 8.36,3.57 14.92,8.82 19.66,15.6 4.81,6.84 7.18,15.31 7.18,25.49 0,9.89 -2.88,19.21 -8.7,27.97 -5.82,8.76 -14.19,15.54 -25.09,20.34 -10.97,4.8 -23.34,7.18 -37.13,7.18 -22.83,0 -40.29,-4.75 -52.27,-14.19 -11.98,-9.49 -19.61,-23.5 -22.94,-42.09z"/>
   <path class="fil0" d="M400.19 666l9.26 -9.26c40.73,-40.73 107.39,-40.73 148.12,0l391.9 391.9c40.73,40.73 40.73,107.39 0,148.12l-9.26 9.26c-40.73,40.73 -107.38,40.73 -148.12,0l-391.9 -391.91c-40.74,-40.73 -40.74,-107.37 0,-148.11z"/>
   <path class="fil0" d="M278.31 641.05l9.26 9.26c40.73,40.73 40.73,107.39 0,148.11l-106.97 106.97c-40.73,40.73 -107.38,40.72 -148.11,0.01l-9.27 -9.27c-40.73,-40.72 -40.73,-107.38 0,-148.12l106.97 -106.96c40.73,-40.74 107.38,-40.73 148.12,0z"/>
   <path class="fil0" d="M287.57 534.85l-9.26 9.26c-40.73,40.74 -107.39,40.73 -148.12,0.01l-106.96 -106.97c-40.73,-40.73 -40.73,-107.38 -0.01,-148.11l9.26 -9.27c40.73,-40.74 107.39,-40.73 148.12,0l106.97 106.97c40.73,40.73 40.72,107.38 0,148.11z"/>
   <path class="fil0" d="M401.2 536.68l-9.26 -9.27c-40.73,-40.73 -40.73,-107.38 0,-148.11l242.09 -242.09c40.73,-40.73 107.38,-40.72 148.11,0l9.27 9.26c40.73,40.72 40.73,107.39 0,148.12l-242.09 242.09c-40.73,40.73 -107.39,40.73 -148.12,0z"/>
  </g>
 </g>
</svg>
